<?xml version="1.0" ?><!DOCTYPE svg  PUBLIC '-//W3C//DTD SVG 1.1//EN'  'http://www.w3.org/Graphics/SVG/1.1/DTD/svg11.dtd'><svg width="64px" height="64px" viewBox="0 0 64 64" style="fill-rule:evenodd;clip-rule:evenodd;stroke-linejoin:round;stroke-miterlimit:2;" version="1.1" xml:space="preserve" xmlns="http://www.w3.org/2000/svg" xmlns:serif="http://www.serif.com/" xmlns:xlink="http://www.w3.org/1999/xlink"><g transform="matrix(1,0,0,1,-352,-81.1692)"><g id="airplane" transform="matrix(1,0,0,1,18.8303,81.1692)"><rect height="64" style="fill:none;" width="64" x="333.17" y="0"/><g transform="matrix(1,0,0,1,141.17,-192)"><path d="M233.236,216L238.789,216C241.464,216 243.962,217.337 245.445,219.562C246.369,220.948 247.466,222.594 248.555,224.227C249.578,225.761 249.673,227.734 248.803,229.359C247.933,230.985 246.238,232 244.394,232C238.985,232 233.236,232 233.236,232C233.236,232 227.599,243.273 225.789,246.894C225.45,247.572 224.758,248 224,248C222.091,248 218.397,248 216,248C215.426,248 214.88,247.754 214.501,247.324C214.121,246.894 213.944,246.321 214.015,245.752C214.566,241.346 215.734,232 215.734,232L200,232C199.47,232 198.961,231.789 198.586,231.414C198.211,231.039 198,230.53 198,230C198,225.816 198,216.184 198,212C198,211.47 198.211,210.961 198.586,210.586C198.961,210.211 199.47,210 200,210C201.849,210 204.527,210 206,210C206.669,210 207.293,210.334 207.664,210.891C208.778,212.562 211.07,216 211.07,216L215.741,216C215.741,216 214.585,206.65 214.041,202.245C213.971,201.676 214.148,201.105 214.528,200.675C214.907,200.246 215.453,200 216.026,200C218.416,200 222.096,200 224,200C224.758,200 225.45,200.428 225.789,201.106C227.599,204.727 233.236,216 233.236,216ZM242.117,221.781C241.375,220.668 240.126,220 238.789,220C232.557,220 214.578,220 210,220C209.331,220 208.707,219.666 208.336,219.109C207.222,217.438 204.93,214 204.93,214L202,214L202,228L218,228C218.574,228 219.12,228.246 219.499,228.676C219.879,229.106 220.056,229.679 219.985,230.248C219.434,234.654 218.266,244 218.266,244L222.764,244C222.764,244 228.401,232.727 230.211,229.106C230.55,228.428 231.242,228 232,228C234.709,228 241.185,228 244.394,228C244.763,228 245.102,227.797 245.276,227.472C245.45,227.147 245.431,226.752 245.227,226.445C244.335,225.108 243.05,223.18 242.117,221.781ZM222.764,204L218.266,204L219.766,216L228.764,216L222.764,204Z"/></g></g></g></svg>