<svg class="svg-icon" style="width: 1em; height: 1em;vertical-align: middle;fill: currentColor;overflow: hidden;" viewBox="0 0 1024 1024" version="1.1" xmlns="http://www.w3.org/2000/svg"><path d="M762.56 284.8l-25.12-75.68a41.28 41.28 0 0 0-39.2-28.32H325.76a41.28 41.28 0 0 0-39.2 28.32l-25.28 75.68a41.12 41.12 0 0 0-38.88 40.96v62.08a41.44 41.44 0 0 0 41.44 41.44h21.44a34.72 34.72 0 0 0 0 4.64l41.44 372.48a41.44 41.44 0 0 0 41.12 36.8h288.96a41.28 41.28 0 0 0 41.12-36.8l41.44-372.48a34.72 34.72 0 0 0 0-4.64h21.44a41.44 41.44 0 0 0 41.44-41.44v-62.08a41.12 41.12 0 0 0-39.68-40.96z m-436.8-62.4h372.48l20.64 62.08H305.12z m41.44 579.36l-6.88-62.08h304l-6.88 62.08z m298.88-82.72H357.92L335.04 512h353.92z m25.28-227.68H332.64l-6.88-62.08h372.48z m68.96-103.52h-496v-62.08h496z" fill="#50A4FF" /></svg>