<svg class="svg-icon" style="width: 1em; height: 1em;vertical-align: middle;fill: currentColor;overflow: hidden;" viewBox="0 0 1024 1024" version="1.1" xmlns="http://www.w3.org/2000/svg"><path d="M830.88 400L624 193.12a41.44 41.44 0 0 0-68.8 16.96 192 192 0 0 1-49.6 80 566.88 566.88 0 0 1-117.92 81.92 634.56 634.56 0 0 0-134.88 94.88 273.28 273.28 0 0 0-70.08 114.88 41.44 41.44 0 0 0 10.4 42.24L400 830.88a41.44 41.44 0 0 0 68.8-17.12 192 192 0 0 1 49.6-80 564.96 564.96 0 0 1 117.92-81.76 637.44 637.44 0 0 0 134.88-95.04 273.28 273.28 0 0 0 70.08-114.88 41.28 41.28 0 0 0-10.4-42.08z m-401.6 401.6L222.24 594.72c58.72-190.4 313.6-182.08 372.48-372.48l207.04 207.04C742.88 619.52 488 611.36 429.28 801.6z" fill="#50A4FF" /><path d="M585.76 489.28a55.36 55.36 0 0 0-20.32-11.36 60 60 0 0 0-20.48-2.24 73.6 73.6 0 0 0-20.64 4.64c-6.88 2.72-13.92 5.6-20.96 9.12-11.04-12.8-22.24-25.44-33.28-37.12a23.36 23.36 0 0 1 14.56-7.04 46.4 46.4 0 0 1 13.44 1.44l12 2.72a11.2 11.2 0 0 0 9.76-2.4 13.92 13.92 0 0 0 4.96-9.92 16 16 0 0 0-4.8-12 26.72 26.72 0 0 0-16-9.12 49.12 49.12 0 0 0-19.2 0 65.6 65.6 0 0 0-18.72 7.36 72.64 72.64 0 0 0-14.08 10.56l-4-3.36a7.68 7.68 0 0 0-5.6-2.08 7.2 7.2 0 0 0-5.6 2.72 8 8 0 0 0 0 11.04l4 3.36a95.04 95.04 0 0 0-13.12 20.96 69.76 69.76 0 0 0-6.24 22.08 43.68 43.68 0 0 0 2.24 20 38.08 38.08 0 0 0 12.32 16 48 48 0 0 0 34.56 10.72 103.68 103.68 0 0 0 42.88-12.96c12.16 14.08 24.48 28.16 36.64 41.12a32 32 0 0 1-13.76 7.68 21.6 21.6 0 0 1-10.72 0 34.24 34.24 0 0 1-8.96-4.32 64 64 0 0 0-8.16-4.8 19.04 19.04 0 0 0-7.68-2.08 14.24 14.24 0 0 0-9.12 4.16 13.28 13.28 0 0 0-5.12 10.24 18.08 18.08 0 0 0 5.28 11.68 42.08 42.08 0 0 0 13.6 9.92 50.4 50.4 0 0 0 18.56 4.8 51.68 51.68 0 0 0 21.76-3.36 62.88 62.88 0 0 0 22.72-16l10.88 10.08a8 8 0 0 0 11.2-1.12 7.84 7.84 0 0 0 1.92-6.08 7.04 7.04 0 0 0-2.56-5.12q-5.44-4.32-10.88-9.28a113.28 113.28 0 0 0 14.88-23.52 72.16 72.16 0 0 0 6.56-22.72 40.64 40.64 0 0 0-2.4-19.52 39.36 39.36 0 0 0-12.32-14.88z m-115.68 14.08a20 20 0 0 1-16-6.08 16 16 0 0 1-4-6.72 20.8 20.8 0 0 1-0.8-8.64 27.2 27.2 0 0 1 2.88-9.6 38.72 38.72 0 0 1 6.72-9.76c10.56 10.4 20.96 21.92 32 33.76a48 48 0 0 1-20.8 6.88z m97.6 40.64a43.04 43.04 0 0 1-6.56 9.12c-11.52-11.68-23.2-24.64-34.72-37.76l9.44-4.16a45.12 45.12 0 0 1 10.08-2.88 26.56 26.56 0 0 1 10.24 0 21.12 21.12 0 0 1 9.44 5.6 18.88 18.88 0 0 1 5.44 9.28 24.96 24.96 0 0 1 0 10.08 33.76 33.76 0 0 1-3.36 10.72zM485.44 640A372.96 372.96 0 0 0 448 672a300.96 300.96 0 0 0-30.24 35.2l-14.08 19.36a10.4 10.4 0 0 0 16 12.96 11.36 11.36 0 0 0 1.6-2.08l13.44-17.44a282.08 282.08 0 0 1 28.16-32 325.28 325.28 0 0 1 35.36-32l1.12-0.8a10.4 10.4 0 0 0-13.92-16zM561.12 340.64a343.68 343.68 0 0 1-34.72 29.92 9.92 9.92 0 0 0-2.4 1.76 10.4 10.4 0 0 0 14.56 15.04 378.08 378.08 0 0 0 37.28-32A301.76 301.76 0 0 0 606.08 320l14.08-19.36a10.4 10.4 0 0 0-16-14.08 11.2 11.2 0 0 0-1.76 2.56l-13.76 18.88a278.56 278.56 0 0 1-27.52 32.64z" fill="#50A4FF" /></svg>