<svg class="svg-icon" style="width: 1em; height: 1em;vertical-align: middle;fill: currentColor;overflow: hidden;" viewBox="0 0 1024 1024" version="1.1" xmlns="http://www.w3.org/2000/svg"><path d="M830.88 381.12l-105.12-105.12a41.44 41.44 0 0 0-29.28-12.16H327.52a41.44 41.44 0 0 0-29.28 12.16l-105.12 105.12a41.28 41.28 0 0 0-1.6 56.8l289.6 308.48a41.44 41.44 0 0 0 61.92 0L832 437.76a41.44 41.44 0 0 0-1.6-56.8z m-272.96 27.52h-91.84L512 370.4zM528 356.96l56.48-47.2L626.4 352l-52.32 43.2z m-78.08 38.24L397.6 352l41.76-41.76L496 356.96z m113.6 34.24L512 687.04l-51.52-257.6z m21.12 0h101.6L533.92 683.2z m5.6-20.64l50.88-42.4 42.4 42.4z m19.2-103.52h72.64l-39.68 32.96zM512 343.52l-45.92-38.24h91.84z m-130.4-5.28l-39.68-32.96h72.64z m1.28 28l50.88 42.4h-93.28z m56.48 63.2l50.72 253.76-152.16-253.92z m4.48 216.8L240 429.28h73.6z m266.4-216.96H784L580.16 646.24z m2.56-20.64l-55.68-55.68 48-39.68 96 96z m-393.6-96l48 39.68-55.68 55.68H222.4z" fill="#50A4FF" /></svg>